# xmcd
#
# Track frame offsets: 
#        150
#        20327
#        37115
#        52695
#        67225
#        83957
#        98662
#        114445
#        129830
#        146222
#        159870
#        178035
#        190745
#
# Disc length: 2746 seconds
#
# Revision: 0
# Processed by: cddbd v1.4PL0 Copyright (c) Steve Scherf et al.
# Submitted via: ExactAudioCopy v0.90a11
#
DISCID=a70ab80d
DTITLE=Moonshine Willy - Pecadores
DYEAR=1900
DGENRE=
TTITLE0=Lucy and Jack
TTITLE1=18 Wheels
TTITLE2=Bare Bones
TTITLE3=Baby Alive
TTITLE4=You're The Reason Our Kids Are Ugly
TTITLE5=Pony
TTITLE6=Too Tired To Live (Too Lazy To Die)
TTITLE7=Doghouse
TTITLE8=Red Cross
TTITLE9=Daddy Cried
TTITLE10=Case Of The Flu
TTITLE11=Jackson
TTITLE12=Great Atomic Power
EXTD=
EXTT0=
EXTT1=
EXTT2=
EXTT3=
EXTT4=
EXTT5=
EXTT6=
EXTT7=
EXTT8=
EXTT9=
EXTT10=
EXTT11=
EXTT12=
PLAYORDER=
